<?xml version="1.0" standalone="no"?><!DOCTYPE svg PUBLIC "-//W3C//DTD SVG 1.1//EN" "http://www.w3.org/Graphics/SVG/1.1/DTD/svg11.dtd"><svg t="1577412152505" class="icon" viewBox="0 0 1024 1024" version="1.1" xmlns="http://www.w3.org/2000/svg" p-id="10301" xmlns:xlink="http://www.w3.org/1999/xlink" width="48" height="48"><defs><style type="text/css"></style></defs><path d="M824.889 630.993l-122.027-50.347a28.444 28.444 0 1 0-21.143 53.57l60.112 24.368-60.112 27.59a28.444 28.444 0 0 0-14.602 37.358 28.919 28.919 0 0 0 25.98 16.024 15.455 15.455 0 0 0 11.377-3.224l120.415-54.993a28.919 28.919 0 0 0 16.213-25.979 25.695 25.695 0 0 0-16.213-24.367zM548.599 517.31a28.444 28.444 0 0 0-35.746 17.825l-61.63 188.397a28.444 28.444 0 0 0 17.826 35.745 17.54 17.54 0 0 0 8.154 1.612 31.668 31.668 0 0 0 27.591-19.532l61.725-188.302a28.444 28.444 0 0 0-17.92-35.745z m-189.915 80.023a30.151 30.151 0 0 0-37.357-16.213l-122.216 49.873a30.436 30.436 0 0 0-17.825 25.979 28.444 28.444 0 0 0 16.687 25.695l120.13 55.182a30.056 30.056 0 0 0 11.378 3.224 28.919 28.919 0 0 0 25.98-16.214 28.444 28.444 0 0 0-14.602-37.357l-60.112-27.59 60.112-24.368c16.214-7.775 24.368-24.083 17.825-38.21z" p-id="10302"></path><path d="M853.333 170.667a56.889 56.889 0 0 1 56.89 56.889v568.888a56.889 56.889 0 0 1-56.89 56.89H170.667a56.889 56.889 0 0 1-56.89-56.89V227.556a56.889 56.889 0 0 1 56.89-56.89h682.666m0-56.888H170.667A113.778 113.778 0 0 0 56.889 227.556v568.888a113.778 113.778 0 0 0 113.778 113.778h682.666a113.778 113.778 0 0 0 113.778-113.778V227.556a113.778 113.778 0 0 0-113.778-113.778z" p-id="10303"></path><path d="M967.111 365.321H56.89v56.89H967.11v-56.89zM182.329 273.54a42.667 42.667 0 1 0 85.333 0 42.667 42.667 0 1 0-85.333 0zM314.785 273.54a42.667 42.667 0 1 0 85.334 0 42.667 42.667 0 1 0-85.334 0zM447.241 273.54a42.667 42.667 0 1 0 85.334 0 42.667 42.667 0 1 0-85.334 0z" p-id="10304"></path></svg>