<?xml version="1.0" standalone="no"?><!DOCTYPE svg PUBLIC "-//W3C//DTD SVG 1.1//EN" "http://www.w3.org/Graphics/SVG/1.1/DTD/svg11.dtd"><svg t="1577411910190" class="icon" viewBox="0 0 1024 1024" version="1.1" xmlns="http://www.w3.org/2000/svg" p-id="7581" xmlns:xlink="http://www.w3.org/1999/xlink" width="48" height="48"><defs><style type="text/css"></style></defs><path d="M389.26 671.279L172.148 888.54c193.839 175.756 490.147 175.756 684.032-0.023l-217.088-217.24c-73.32 57.1-176.5 57.065-249.832 0z m103.947 244.864l-100.445-126.29h220.986l-120.54 126.29zM639.07 349.114L856.18 131.84C662.32-43.939 366-43.927 172.148 131.852l217.088 217.25c73.344-57.076 176.536-57.04 249.833 0.012zM524.777 95.372l120.54 126.277H424.333L524.777 95.372z m367.476 72.552L675.142 385.21c56.971 73.38 57.018 176.629 0 249.996l217.088 217.25c175.674-193.966 175.697-490.53 0.023-684.532z m-89.1 432.536V379.485l126.255 120.541L803.153 600.46zM353.187 385.187l-217.1-217.24c-175.662 193.99-175.662 490.555 0.012 684.521L353.21 635.194c-57.03-73.367-57.076-176.617-0.023-250.007zM203.357 600.46L77.091 500.015l126.266-120.542V600.46z" p-id="7582"></path></svg>