<?xml version="1.0" standalone="no"?><!DOCTYPE svg PUBLIC "-//W3C//DTD SVG 1.1//EN" "http://www.w3.org/Graphics/SVG/1.1/DTD/svg11.dtd"><svg t="1577412006564" class="icon" viewBox="0 0 1024 1024" version="1.1" xmlns="http://www.w3.org/2000/svg" p-id="9054" xmlns:xlink="http://www.w3.org/1999/xlink" width="48" height="48"><defs><style type="text/css"></style></defs><path d="M44.8 512a467.2 467.2 0 1 0 934.4 0 467.2 467.2 0 1 0-934.4 0z" fill="#FFFFFF" p-id="9055"></path><path d="M512 96c230.4 0 416 185.6 416 416S742.4 928 512 928 96 742.4 96 512 281.6 96 512 96m0-96C230.4 0 0 230.4 0 512s230.4 512 512 512 512-230.4 512-512S793.6 0 512 0z" fill="#2c2c2c" p-id="9056" data-spm-anchor-id="a313x.7781069.0.i12" class="selected"></path><path d="M300.8 723.2c-121.6-121.6-121.6-313.6 0-435.2L736 723.2c-121.6 121.6-320 121.6-435.2 0z m0 0" fill="#2c2c2c" p-id="9057" data-spm-anchor-id="a313x.7781069.0.i10" class="selected"></path><path d="M352 665.6l6.4 6.4c25.6 25.6 25.6 57.6 0 83.2l-32 32c-25.6 25.6-57.6 25.6-83.2 0l-6.4-6.4c-25.6-25.6-25.6-57.6 0-83.2l32-32c25.6-25.6 64-25.6 83.2 0z m294.4-288c19.2 19.2 19.2 51.2 0 70.4-19.2 25.6-51.2 25.6-70.4 6.4-25.6-19.2-25.6-51.2 0-76.8 19.2-19.2 51.2-19.2 70.4 0z" fill="#2c2c2c" p-id="9058" data-spm-anchor-id="a313x.7781069.0.i11" class="selected"></path><path d="M468.48 527.36l108.608-108.544 31.68 31.68L500.16 559.104zM780.8 422.4c0-102.4-83.2-179.2-179.2-179.2v-32c121.6 0 217.6 96 217.6 217.6h-38.4z" fill="#2c2c2c" p-id="9059" data-spm-anchor-id="a313x.7781069.0.i13" class="selected"></path><path d="M595.2 281.6c76.8 0 140.8 64 140.8 140.8h-32c0-57.6-51.2-108.8-108.8-108.8v-32z" fill="#2c2c2c" p-id="9060" data-spm-anchor-id="a313x.7781069.0.i14" class="selected"></path></svg>