<?xml version="1.0" standalone="no"?><!DOCTYPE svg PUBLIC "-//W3C//DTD SVG 1.1//EN" "http://www.w3.org/Graphics/SVG/1.1/DTD/svg11.dtd"><svg t="1577383538415" class="icon" viewBox="0 0 1089 1024" version="1.1" xmlns="http://www.w3.org/2000/svg" p-id="4558" xmlns:xlink="http://www.w3.org/1999/xlink" width="51.046875" height="48"><defs><style type="text/css"></style></defs><path d="M849.702128 474.961702h-156.868085l-54.468086 161.225532c-4.357447 15.251064-23.965957 17.429787-32.680851 4.357447L435.744681 403.06383 413.957447 457.531915c-2.178723 8.714894-10.893617 15.251064-21.787234 15.251064H213.514894c-23.965957 0-45.753191-17.429787-50.110639-41.395745-4.357447-30.502128 19.608511-54.468085 47.931915-54.468085h132.902128l54.468085-137.259575c4.357447-15.251064 23.965957-17.429787 32.680851-4.357446l165.582979 228.765957 23.965957-71.897872c2.178723-8.714894 10.893617-17.429787 21.787234-17.429787h202.621277c23.965957 0 45.753191 17.429787 50.110638 41.395744 6.53617 34.859574-15.251064 58.825532-45.753191 58.825532M991.319149 0H93.685106C43.574468 0 0 43.574468 0 95.86383v664.510638c0 52.289362 43.574468 95.86383 93.685106 95.86383h400.885107v71.897872h-187.370213c-23.965957 0-45.753191 17.429787-50.110638 41.395745-4.357447 30.502128 19.608511 54.468085 47.931915 54.468085h470.604255c23.965957 0 45.753191-17.429787 50.110638-41.395745 4.357447-30.502128-19.608511-54.468085-47.931915-54.468085H588.255319v-71.897872h400.885107c52.289362 0 93.685106-43.574468 93.685106-95.86383V95.86383C1087.182979 43.574468 1043.608511 0 991.319149 0" fill="#f4ea2a" p-id="4559"></path></svg>