<?xml version="1.0" standalone="no"?><!DOCTYPE svg PUBLIC "-//W3C//DTD SVG 1.1//EN" "http://www.w3.org/Graphics/SVG/1.1/DTD/svg11.dtd"><svg t="1577411948076" class="icon" viewBox="0 0 1026 1024" version="1.1" xmlns="http://www.w3.org/2000/svg" p-id="7856" xmlns:xlink="http://www.w3.org/1999/xlink" width="48.09375" height="48"><defs><style type="text/css"></style></defs><path d="M865.270409 0.013312H156.681187A156.667848 156.667848 0 0 0 0.013339 156.68116V865.270382A156.667848 156.667848 0 0 0 156.681187 1023.986176H865.270409a156.667848 156.667848 0 0 0 158.715794-158.715794V156.68116A156.667848 156.667848 0 0 0 865.270409 0.013312z m-102.397286 524.786093l-76.797965 75.773992a19.967471 19.967471 0 0 1-27.647267 0 19.455484 19.455484 0 0 1 0-28.159254l41.470901-41.470901h-169.467509v168.955523l41.470901-41.470901a19.455484 19.455484 0 1 1 27.647267 27.647267l-74.750019 74.750019a19.967471 19.967471 0 0 1-27.135281 0L421.890159 686.075131a19.455484 19.455484 0 1 1 28.159254-27.647267l41.470901 41.470901v-168.955523H322.052805l41.982887 41.470901a19.967471 19.967471 0 1 1-28.159254 28.159254l-75.262005-75.262006a19.455484 19.455484 0 0 1 0-25.599321l75.262005-77.821938a19.967471 19.967471 0 1 1 28.159254 27.647267l-41.982887 41.470901h168.955522v-168.955522l-41.470901 41.470901a20.479457 20.479457 0 0 1-28.159253 0 19.967471 19.967471 0 0 1 0-28.159254l75.773991-74.750019a19.967471 19.967471 0 0 1 26.111309 0l74.750019 74.750019a19.967471 19.967471 0 0 1 0 28.159254 19.967471 19.967471 0 0 1-27.647268 0l-41.470901-41.470901v168.955522h169.467509l-41.470901-41.470901a18.943498 18.943498 0 0 1 0-27.647267 19.455484 19.455484 0 0 1 27.647268 0l75.262005 75.262005a19.455484 19.455484 0 0 1 1.53596 27.647268z" fill="#2c2c2c" p-id="7857"></path></svg>