<?xml version="1.0" standalone="no"?><!DOCTYPE svg PUBLIC "-//W3C//DTD SVG 1.1//EN" "http://www.w3.org/Graphics/SVG/1.1/DTD/svg11.dtd"><svg t="1577411788222" class="icon" viewBox="0 0 1158 1024" version="1.1" xmlns="http://www.w3.org/2000/svg" p-id="4057" xmlns:xlink="http://www.w3.org/1999/xlink" width="226.171875" height="200"><defs><style type="text/css"></style></defs><path d="M564.726073 930.220408a135.314286 135.314286 0 0 1-184.946938-197.485714l17.763265-16.718367 408.555102-382.693878A192.522449 192.522449 0 0 0 680.448522 0.261224a188.342857 188.342857 0 0 0-137.92653 52.244898l-237.97551 223.346939a185.469388 185.469388 0 1 0-137.142858 326.791837 187.820408 187.820408 0 0 0 19.853062 0 185.208163 185.208163 0 0 0 156.734694-285.518367l237.97551-224.130613a135.314286 135.314286 0 0 1 184.946939 197.485715l-17.763266 16.718367L340.856686 690.938776a192.522449 192.522449 0 0 0 125.648979 333.061224H471.468931a191.216327 191.216327 0 0 0 130.612245-52.244898l248.163265-232.489796a186.77551 186.77551 0 0 1-37.355102-43.885714zM314.734237 432.587755a128 128 0 1 1-127.477551-141.322449h13.583673a126.432653 126.432653 0 0 1 61.64898 24.293878 125.910204 125.910204 0 0 1 52.244898 117.028571z" fill="#222222" p-id="4058"></path><path d="M991.828114 414.302041a185.208163 185.208163 0 0 0-177.110204 281.6 186.77551 186.77551 0 0 0 37.355102 43.885714 185.469388 185.469388 0 1 0 139.755102-325.485714z m107.885715 197.746939a128.261224 128.261224 0 0 1-140.8 113.893877 126.693878 126.693878 0 0 1-64.261225-26.122449 128.261224 128.261224 0 0 1-36.571428-44.408163 127.738776 127.738776 0 0 1 114.155102-184.685714h13.583673a128.261224 128.261224 0 0 1 113.893878 141.322449z" fill="#FBDC2B" p-id="4059"></path></svg>