<?xml version="1.0" standalone="no"?><!DOCTYPE svg PUBLIC "-//W3C//DTD SVG 1.1//EN" "http://www.w3.org/Graphics/SVG/1.1/DTD/svg11.dtd"><svg t="1577383599065" class="icon" viewBox="0 0 1024 1024" version="1.1" xmlns="http://www.w3.org/2000/svg" p-id="5519" xmlns:xlink="http://www.w3.org/1999/xlink" width="48" height="48"><defs><style type="text/css"></style></defs><path d="M56.825749 511.318091c0-251.084573 203.521421-454.605993 454.605994-454.605993 206.902553 0 381.187125 138.342286 436.251276 327.458379l55.206215-13.325638C941.773141 156.782242 745.127636-0.113651 511.431743-0.113651c-282.452386 0-511.431743 228.979356-511.431743 511.431742 0 33.924972 3.494784 66.997558 9.774029 99.075694l55.376692-13.354051A458.12919 458.12919 0 0 1 56.825749 511.318091zM1013.089456 412.242397l-55.376692 13.354051c5.284795 27.787791 8.324972 56.371143 8.324972 85.721643 0 251.084573-203.521421 454.605993-454.605993 454.605993-206.902553 0-381.187125-138.342286-436.251277-327.458379L19.974251 651.791343C81.090344 865.825527 277.735849 1022.749834 511.431743 1022.749834c282.452386 0 511.431743-228.979356 511.431742-511.431743 0-33.924972-3.494784-66.997558-9.774029-99.075694z" fill="#d81e06" p-id="5520"></path><path d="M511.431743 113.537847c-219.688346 0-397.780244 178.091898-397.780245 397.780244 0 24.747614 2.557159 48.870144 6.875916 72.367592l279.809989-67.480578-129.221754-186.502108c-4.063041-6.108768-6.108768-14.23485-2.045727-22.389346a21.366482 21.366482 0 0 1 18.326304-10.171809h447.559601c8.126082 0 14.23485 4.063041 18.326304 10.171809 4.091454 6.108768 2.045727 14.23485-2.045727 20.343619l-85.664817 124.562042 226.905217-54.723197C843.493008 233.298113 691.540954 113.537847 511.431743 113.537847z" fill="#d81e06" p-id="5521"></path><path d="M511.431743 113.537847c-219.688346 0-397.780244 178.091898-397.780245 397.780244 0 24.747614 2.557159 48.870144 6.875916 72.367592l279.809989-67.480578-129.221754-186.502108c-4.063041-6.108768-6.108768-14.23485-2.045727-22.389346a21.366482 21.366482 0 0 1 18.326304-10.171809h447.559601c8.126082 0 14.23485 4.063041 18.326304 10.171809 4.091454 6.108768 2.045727 14.23485-2.045727 20.343619l-85.664817 124.562042 226.905217-54.723197C843.493008 233.298113 691.540954 113.537847 511.431743 113.537847zM572.150055 588.032852v136.29656c0 8.126082-4.063041 14.23485-12.217536 18.326304l-81.374472 40.687236c-1.988901 2.045727-4.034628 2.045727-8.09767 2.045727s-8.126082-2.045727-10.171809-2.045727a24.264595 24.264595 0 0 1-10.171809-18.326304v-176.955383l-23.753163-34.294339-295.976915 71.373141C179.370477 789.309656 331.322531 909.098335 511.431743 909.098335c219.688346 0 397.780244-178.091898 397.780244-397.780244 0-24.747614-2.557159-48.870144-6.875916-72.367592l-272.90566 65.832631-57.280356 83.249722z" fill="#d81e06" p-id="5522"></path><path d="M572.150055 588.032852v136.29656c0 8.126082-4.063041 14.23485-12.217536 18.326304l-81.374472 40.687236c-1.988901 2.045727-4.034628 2.045727-8.09767 2.045727s-8.126082-2.045727-10.171809-2.045727a24.264595 24.264595 0 0 1-10.171809-18.326304v-176.955383l-23.753163-34.294339-295.976915 71.373141C179.370477 789.309656 331.322531 909.098335 511.431743 909.098335c219.688346 0 397.780244-178.091898 397.780244-397.780244 0-24.747614-2.557159-48.870144-6.875916-72.367592l-272.90566 65.832631-57.280356 83.249722z" fill="#d81e06" p-id="5523"></path><path d="M490.803996 581.924084v150.559823l40.687236-20.343618v-130.216205c0-4.063041 2.045727-8.126082 4.063041-12.217536l35.203552-50.802219-102.144284 24.633962 18.127413 26.168257c2.045727 4.063041 4.063041 8.126082 4.063042 12.217536z" fill="#d81e06" p-id="5524"></path><path d="M490.803996 581.924084v150.559823l40.687236-20.343618v-130.216205c0-4.063041 2.045727-8.126082 4.063041-12.217536l35.203552-50.802219-102.144284 24.633962 18.127413 26.168257c2.045727 4.063041 4.063041 8.126082 4.063042 12.217536zM696.257492 337.800666h-370.219756l116.549611 168.204217 164.652609-39.721198z" fill="#d81e06" p-id="5525"></path><path d="M696.257492 337.800666h-370.219756l116.549611 168.204217 164.652609-39.721198z" fill="#d81e06" p-id="5526"></path></svg>